<svg width="46" height="46" fill="currentColor" viewBox="0 0 24 24" xmlns="http://www.w3.org/2000/svg">
  <path d="M1.5 1.5v21h21v-21h-21Zm11.25 16.313c0 2.044-1.207 3.04-2.955 3.04-1.58 0-2.496-.817-2.96-1.804l1.606-.973c.31.55.545 1.015 1.222 1.015.562 0 1.024-.253 1.024-1.24V11.25h2.063v6.563Zm4.657 2.993c-1.832 0-3.016-.826-3.594-1.968l1.609-.932c.422.691.973 1.152 1.945 1.152.818 0 1.293-.362 1.293-.926 0-.677-.49-.916-1.392-1.313l-.493-.212c-1.424-.605-2.368-1.366-2.368-2.974 0-1.48 1.127-2.56 2.89-2.56 1.254 0 2.156.39 2.805 1.531l-1.54.99c-.338-.606-.703-.844-1.268-.844-.578 0-.945.367-.945.844 0 .592.367.831 1.213 1.198l.493.211c1.678.72 2.622 1.453 2.622 3.102 0 1.776-1.395 2.701-3.27 2.701Z"></path>
</svg>