<svg width="46" height="46" fill="currentColor" viewBox="0 0 24 24" xmlns="http://www.w3.org/2000/svg">
  <path d="M19.25 8.471a16.35 16.35 0 0 0-.724-.228c.04-.165.077-.33.111-.495.549-2.668.19-4.816-1.034-5.524-1.172-.678-3.094.029-5.033 1.72-.19.167-.377.339-.56.516a10.989 10.989 0 0 0-.375-.345c-2.032-1.809-4.068-2.57-5.29-1.86-1.173.68-1.521 2.7-1.027 5.227.049.25.104.5.166.747-.288.082-.567.17-.833.262C2.27 9.323.75 10.628.75 11.981c0 1.398 1.633 2.8 4.114 3.65.201.067.405.131.61.19a13.96 13.96 0 0 0-.177.805c-.469 2.484-.103 4.456 1.066 5.132 1.208.698 3.235-.02 5.21-1.749.156-.137.313-.281.469-.433.197.19.4.376.61.555 1.912 1.65 3.8 2.316 4.968 1.638 1.207-.7 1.6-2.82 1.09-5.397-.04-.197-.084-.398-.135-.603.142-.042.282-.085.418-.13 2.578-.857 4.258-2.242 4.258-3.657-.001-1.36-1.571-2.672-4.001-3.51Zm-6.047-3.8c1.66-1.45 3.213-2.021 3.92-1.612.754.435 1.047 2.191.574 4.494-.031.15-.065.3-.101.449a22.866 22.866 0 0 0-3.009-.477 22.557 22.557 0 0 0-1.902-2.379c.168-.163.34-.321.517-.475Zm-5.81 8.466a28.373 28.373 0 0 0 1.345 2.325 20.406 20.406 0 0 1-2.074-.334 21.53 21.53 0 0 1 .73-1.991Zm0-2.266c-.28-.665-.519-1.32-.714-1.951a21.6 21.6 0 0 1 2.04-.35 27.81 27.81 0 0 0-1.327 2.301h.002Zm.512 1.133a27.347 27.347 0 0 1 2.048-3.558 27.226 27.226 0 0 1 4.101 0c.382.566.743 1.144 1.084 1.735.341.59.665 1.194.97 1.81-.301.62-.624 1.228-.967 1.825-.341.593-.7 1.175-1.079 1.745-.667.047-1.359.073-2.062.073-.703 0-1.381-.022-2.037-.065a27.26 27.26 0 0 1-2.06-3.565h.002Zm8.068 2.293c.226-.393.444-.792.652-1.195.286.648.538 1.31.756 1.984-.693.156-1.394.276-2.1.358.238-.377.469-.76.692-1.147Zm.643-3.425a31.326 31.326 0 0 0-.648-1.172c-.218-.38-.446-.757-.684-1.128.718.091 1.407.212 2.052.36a20.612 20.612 0 0 1-.72 1.94ZM12.01 5.835c.468.512.91 1.046 1.324 1.602a27.967 27.967 0 0 0-2.66 0 21.25 21.25 0 0 1 1.336-1.602ZM6.828 3.087C7.58 2.65 9.245 3.275 11 4.834c.112.1.225.205.337.313-.69.749-1.33 1.543-1.915 2.377-1.01.091-2.013.248-3.003.469-.057-.23-.109-.462-.155-.695-.424-2.167-.143-3.8.564-4.21ZM5.73 14.893a11.199 11.199 0 0 1-.555-.174c-1.097-.375-2.003-.865-2.625-1.397-.557-.478-.84-.955-.84-1.341 0-.82 1.223-1.868 3.26-2.578.256-.09.514-.17.774-.245.303.973.669 1.924 1.097 2.848a23.548 23.548 0 0 0-1.11 2.887Zm5.21 4.39c-.874.765-1.748 1.308-2.52 1.581-.692.245-1.244.252-1.577.06-.71-.41-1.005-1.994-.603-4.119.048-.25.103-.5.165-.75 1 .216 2.012.363 3.032.44a23.44 23.44 0 0 0 1.931 2.391c-.14.137-.283.27-.428.398Zm1.098-1.088a21.601 21.601 0 0 1-1.354-1.624 33.598 33.598 0 0 0 2.675-.004 20.6 20.6 0 0 1-1.322 1.628Zm5.836 1.34c-.134.724-.403 1.207-.736 1.4-.71.412-2.226-.123-3.861-1.534a15.464 15.464 0 0 1-.566-.515 22.714 22.714 0 0 0 1.886-2.4 22.375 22.375 0 0 0 3.047-.472c.046.186.086.368.122.546.225 1.14.257 2.17.108 2.975Zm.816-4.811c-.123.04-.25.08-.378.119a22.658 22.658 0 0 0-1.14-2.857c.428-.913.794-1.854 1.096-2.815.23.067.453.137.669.212 2.082.718 3.352 1.78 3.352 2.598 0 .872-1.372 2.003-3.599 2.743Z"></path>
  <path d="M12 13.992a2.016 2.016 0 1 0 .012-4.03 2.016 2.016 0 0 0-.013 4.03Z"></path>
</svg>